<svg width="290" height="261" viewBox="0 0 290 261" fill="none" xmlns="http://www.w3.org/2000/svg">
<path d="M80.5554 142.333C76.2825 142.333 72.1846 140.771 69.1632 137.989C66.1418 135.207 64.4443 131.434 64.4443 127.5C64.4443 123.566 66.1418 119.793 69.1632 117.011C72.1846 114.229 76.2825 112.667 80.5554 112.667C84.8284 112.667 88.9263 114.229 91.9477 117.011C94.9691 119.793 96.6666 123.566 96.6666 127.5C96.6666 131.434 94.9691 135.207 91.9477 137.989C88.9263 140.771 84.8284 142.333 80.5554 142.333ZM80.5554 201.667C76.2825 201.667 72.1846 200.104 69.1632 197.322C66.1418 194.54 64.4443 190.767 64.4443 186.833C64.4443 182.899 66.1418 179.126 69.1632 176.345C72.1846 173.563 76.2825 172 80.5554 172C84.8284 172 88.9263 173.563 91.9477 176.345C94.9691 179.126 96.6666 182.899 96.6666 186.833C96.6666 190.767 94.9691 194.54 91.9477 197.322C88.9263 200.104 84.8284 201.667 80.5554 201.667ZM128.889 186.833C128.889 190.767 130.586 194.54 133.608 197.322C136.629 200.104 140.727 201.667 145 201.667C149.273 201.667 153.371 200.104 156.392 197.322C159.414 194.54 161.111 190.767 161.111 186.833C161.111 182.899 159.414 179.126 156.392 176.345C153.371 173.563 149.273 172 145 172C140.727 172 136.629 173.563 133.608 176.345C130.586 179.126 128.889 182.899 128.889 186.833ZM209.444 201.667C205.171 201.667 201.073 200.104 198.052 197.322C195.031 194.54 193.333 190.767 193.333 186.833C193.333 182.899 195.031 179.126 198.052 176.345C201.073 173.563 205.171 172 209.444 172C213.717 172 217.815 173.563 220.837 176.345C223.858 179.126 225.555 182.899 225.555 186.833C225.555 190.767 223.858 194.54 220.837 197.322C217.815 200.104 213.717 201.667 209.444 201.667ZM128.889 127.5C128.889 131.434 130.586 135.207 133.608 137.989C136.629 140.771 140.727 142.333 145 142.333C149.273 142.333 153.371 140.771 156.392 137.989C159.414 135.207 161.111 131.434 161.111 127.5C161.111 123.566 159.414 119.793 156.392 117.011C153.371 114.229 149.273 112.667 145 112.667C140.727 112.667 136.629 114.229 133.608 117.011C130.586 119.793 128.889 123.566 128.889 127.5ZM209.444 142.333C205.171 142.333 201.073 140.771 198.052 137.989C195.031 135.207 193.333 131.434 193.333 127.5C193.333 123.566 195.031 119.793 198.052 117.011C201.073 114.229 205.171 112.667 209.444 112.667C213.717 112.667 217.815 114.229 220.837 117.011C223.858 119.793 225.555 123.566 225.555 127.5C225.555 131.434 223.858 135.207 220.837 137.989C217.815 140.771 213.717 142.333 209.444 142.333ZM80.5554 53.3333C76.2825 53.3333 72.1846 54.8961 69.1632 57.6779C66.1418 60.4597 64.4443 64.2326 64.4443 68.1667C64.4443 72.1007 66.1418 75.8736 69.1632 78.6554C72.1846 81.4372 76.2825 83 80.5554 83H209.444C213.717 83 217.815 81.4372 220.837 78.6554C223.858 75.8736 225.555 72.1007 225.555 68.1667C225.555 64.2326 223.858 60.4597 220.837 57.6779C217.815 54.8961 213.717 53.3333 209.444 53.3333H80.5554Z" fill="black" fill-opacity="0.29"/>
<path fill-rule="evenodd" clip-rule="evenodd" d="M48.3333 0C35.5145 0 23.2208 4.58302 14.1565 12.7409C5.09225 20.8987 0 31.9631 0 43.5V217.5C0 229.037 5.09225 240.101 14.1565 248.259C23.2208 256.417 35.5145 261 48.3333 261H241.667C254.485 261 266.779 256.417 275.844 248.259C284.908 240.101 290 229.037 290 217.5V43.5C290 31.9631 284.908 20.8987 275.844 12.7409C266.779 4.58302 254.485 0 241.667 0H48.3333ZM241.667 29H48.3333C44.0604 29 39.9625 30.5277 36.9411 33.247C33.9196 35.9662 32.2222 39.6544 32.2222 43.5V217.5C32.2222 221.346 33.9196 225.034 36.9411 227.753C39.9625 230.472 44.0604 232 48.3333 232H241.667C245.94 232 250.038 230.472 253.059 227.753C256.08 225.034 257.778 221.346 257.778 217.5V43.5C257.778 39.6544 256.08 35.9662 253.059 33.247C250.038 30.5277 245.94 29 241.667 29Z" fill="#030303"/>
</svg>
