<svg width="158" height="149" viewBox="0 0 158 149" fill="none" xmlns="http://www.w3.org/2000/svg">
<g clip-path="url(#clip0_27_811)">
<path d="M158 74.5C158.014 84.585 155.849 94.567 151.638 103.837L151.376 104.406C144.252 119.689 131.9 132.278 116.294 140.16C100.688 148.042 82.7299 150.761 65.2919 147.882C64.8174 147.803 64.3437 147.721 63.8708 147.636C58.9843 146.742 54.1993 145.412 49.5807 143.662C48.8304 143.377 48.0856 143.083 47.3462 142.778C46.8414 142.57 46.3365 142.357 45.8364 142.136C32.1538 136.156 20.5692 126.612 12.4482 114.628C4.32712 102.645 0.00803242 88.7216 0 74.5C0 33.3553 35.37 0 79 0C122.63 0 158 33.3553 158 74.5Z" fill="#F9F9F9"/>
<path opacity="0.2" d="M65.2918 147.883C64.8173 147.803 64.3437 147.721 63.8708 147.636C63.5622 139.192 62.5034 121.86 58.8923 103.709C56.9174 93.7753 54.1757 83.5921 50.373 74.489C49.0702 71.3392 47.5821 68.2604 45.9158 65.2669C42.0733 58.423 37.4128 52.6614 31.7612 48.7579L32.5933 47.6866C37.2936 50.9356 41.5178 55.4967 45.266 61.37C46.3903 63.1289 47.4701 65.0053 48.5055 66.9993C49.6157 69.1329 50.6745 71.3981 51.6819 73.7947C52.3246 75.32 52.9455 76.8981 53.5447 78.5292C56.1531 85.6111 58.3704 93.6915 60.1966 102.77C60.6009 104.776 60.9858 106.831 61.3512 108.935C64.1816 125.239 65.0347 140.314 65.2918 147.883Z" fill="black"/>
<path opacity="0.2" d="M47.3463 142.778C46.8415 142.571 46.3366 142.357 45.8364 142.136C45.3479 137.133 44.4504 130.926 42.8097 125.034C42.091 122.388 41.1685 119.795 40.0493 117.276C38.1772 113.143 35.7534 109.63 32.6191 107.463L33.4512 106.394C36.7327 108.66 39.264 112.242 41.2203 116.432C43.4244 121.153 44.8945 126.648 45.8738 131.898C46.6007 135.797 47.0588 139.564 47.3463 142.778Z" fill="black"/>
<path opacity="0.2" d="M23.9014 48.727C27.7854 48.727 30.934 45.7578 30.934 42.0951C30.934 38.4324 27.7854 35.4631 23.9014 35.4631C20.0175 35.4631 16.8689 38.4324 16.8689 42.0951C16.8689 45.7578 20.0175 48.727 23.9014 48.727Z" fill="black"/>
<path opacity="0.2" d="M26.1661 105.816C30.05 105.816 33.1986 102.847 33.1986 99.1843C33.1986 95.5216 30.05 92.5524 26.1661 92.5524C22.2821 92.5524 19.1335 95.5216 19.1335 99.1843C19.1335 102.847 22.2821 105.816 26.1661 105.816Z" fill="black"/>
<path opacity="0.2" d="M51.8208 53.2347C50.3295 61.1691 53.6215 68.3534 53.6215 68.3534C53.6215 68.3534 59.3315 62.6738 60.8227 54.7394C62.314 46.8051 59.022 39.6207 59.022 39.6207C59.022 39.6207 53.3121 45.3004 51.8208 53.2347Z" fill="black"/>
<path opacity="0.2" d="M28.4487 72.0691C36.4737 74.8364 44.5378 73.0605 44.5378 73.0605C44.5378 73.0605 39.5907 66.7979 31.5656 64.0306C23.5406 61.2633 15.4766 63.0392 15.4766 63.0392C15.4766 63.0392 20.4237 69.3018 28.4487 72.0691Z" fill="black"/>
<path opacity="0.2" d="M27.0879 122.624C32.7128 124.563 38.373 123.298 38.373 123.298C38.373 123.298 34.9134 118.888 29.2885 116.948C23.6636 115.009 18.0034 116.274 18.0034 116.274C18.0034 116.274 21.463 120.684 27.0879 122.624Z" fill="black"/>
<path d="M78.8379 90.9978C95.8473 90.9978 109.636 77.9944 109.636 61.9538C109.636 45.9132 95.8473 32.9098 78.8379 32.9098C61.8284 32.9098 48.0396 45.9132 48.0396 61.9538C48.0396 77.9944 61.8284 90.9978 78.8379 90.9978Z" fill="#F9F9F9"/>
<path d="M66.8071 84.1906C66.8071 84.1906 70.6569 101.436 70.6569 103.251C70.6569 105.066 88.9434 113.235 88.9434 113.235L105.305 110.512L111.08 94.1745C111.08 94.1745 101.455 80.5601 101.455 75.1144L66.8071 84.1906Z" fill="#EEEEEE"/>
<path d="M151.638 103.837L151.376 104.406C144.252 119.689 131.9 132.278 116.294 140.16C100.688 148.042 82.7298 150.761 65.2918 147.882C64.8173 147.803 64.3436 147.721 63.8707 147.636C58.9842 146.742 54.1992 145.412 49.5806 143.661C48.8303 143.377 48.0855 143.083 47.3461 142.778C46.8413 142.57 46.3364 142.357 45.8363 142.136C41.3026 140.155 36.9787 137.773 32.9228 135.021L29.272 125.034L31.3241 123.558L35.5452 120.518L40.0492 117.276L41.2201 116.432L58.8923 103.709L60.1965 102.77L69.382 96.1579L69.3843 96.1557C69.3843 96.1557 79.3178 111.419 93.7551 106.881C108.193 102.343 107.877 89.3295 107.877 89.3295L151.638 103.837Z" fill="#030303"/>
<path d="M52.1295 38.554C52.1295 38.554 61.9079 18.5744 80.6498 23.185C99.3916 27.7957 109.985 34.7117 110.8 41.6278C111.615 48.5438 110.392 58.9178 110.392 58.9178C110.392 58.9178 108.355 44.7016 95.3173 47.7753C82.2795 50.8491 61.9079 48.5438 61.9079 48.5438L58.6484 76.2079C58.6484 76.2079 54.9816 71.213 50.9072 74.2868C46.8329 77.3606 39.0917 44.7016 52.1295 38.554Z" fill="#030303"/>
<path d="M49.5806 143.662C48.8303 143.377 48.0855 143.083 47.3461 142.778C46.8413 142.571 46.3364 142.357 45.8362 142.136C38.338 138.857 31.4303 134.492 25.364 129.198C27.512 126.438 29.2719 125.034 29.2719 125.034H43.7093L45.8736 131.898L49.5806 143.662Z" fill="#030303"/>
<path d="M138.991 102.343L151.376 104.406C148.062 111.526 143.585 118.114 138.11 123.928L138.991 102.343Z" fill="#030303"/>
</g>
<defs>
<clipPath id="clip0_27_811">
<rect width="158" height="149" fill="white"/>
</clipPath>
</defs>
</svg>
