<svg width="158" height="149" viewBox="0 0 158 149" fill="none" xmlns="http://www.w3.org/2000/svg">
<g clip-path="url(#clip0_15_858)">
<path d="M158 74.5C158.014 84.585 155.849 94.567 151.638 103.837L151.376 104.406C144.252 119.689 131.9 132.278 116.294 140.16C100.688 148.042 82.7299 150.761 65.2919 147.882C64.8174 147.803 64.3437 147.721 63.8708 147.636C58.9843 146.742 54.1993 145.412 49.5807 143.662C48.8304 143.377 48.0856 143.083 47.3462 142.778C46.8414 142.57 46.3365 142.357 45.8364 142.136C32.1538 136.156 20.5692 126.612 12.4482 114.628C4.32712 102.645 0.00803242 88.7216 0 74.5C0 33.3553 35.37 0 79 0C122.63 0 158 33.3553 158 74.5Z" fill="#F9F9F9"/>
<path opacity="0.2" d="M65.2918 147.883C64.8173 147.803 64.3437 147.721 63.8708 147.636C63.5622 139.192 62.5034 121.86 58.8923 103.709C56.9174 93.7753 54.1757 83.5921 50.373 74.489C49.0702 71.3392 47.5821 68.2604 45.9158 65.2669C42.0733 58.423 37.4128 52.6614 31.7612 48.7579L32.5933 47.6866C37.2936 50.9356 41.5178 55.4967 45.266 61.37C46.3903 63.1289 47.4701 65.0053 48.5055 66.9993C49.6157 69.1329 50.6745 71.3981 51.6819 73.7947C52.3246 75.32 52.9455 76.8981 53.5447 78.5292C56.1531 85.6111 58.3704 93.6915 60.1966 102.77C60.6009 104.776 60.9858 106.831 61.3512 108.935C64.1816 125.239 65.0347 140.314 65.2918 147.883Z" fill="black"/>
<path opacity="0.2" d="M47.3462 142.778C46.8413 142.571 46.3365 142.357 45.8363 142.136C45.3478 137.133 44.4503 130.926 42.8095 125.034C42.0909 122.388 41.1684 119.795 40.0492 117.276C38.1771 113.143 35.7533 109.63 32.619 107.463L33.4511 106.394C36.7326 108.66 39.2639 112.242 41.2202 116.432C43.4242 121.153 44.8944 126.648 45.8737 131.898C46.6006 135.797 47.0587 139.564 47.3462 142.778Z" fill="black"/>
<path opacity="0.2" d="M23.9014 48.727C27.7854 48.727 30.934 45.7578 30.934 42.0951C30.934 38.4324 27.7854 35.4631 23.9014 35.4631C20.0175 35.4631 16.8689 38.4324 16.8689 42.0951C16.8689 45.7578 20.0175 48.727 23.9014 48.727Z" fill="black"/>
<path opacity="0.2" d="M26.1662 105.816C30.0502 105.816 33.1987 102.847 33.1987 99.1844C33.1987 95.5217 30.0502 92.5524 26.1662 92.5524C22.2822 92.5524 19.1337 95.5217 19.1337 99.1844C19.1337 102.847 22.2822 105.816 26.1662 105.816Z" fill="black"/>
<path opacity="0.2" d="M51.8209 53.2347C50.3296 61.1691 53.6217 68.3534 53.6217 68.3534C53.6217 68.3534 59.3316 62.6738 60.8229 54.7394C62.3142 46.8051 59.0221 39.6207 59.0221 39.6207C59.0221 39.6207 53.3122 45.3004 51.8209 53.2347Z" fill="black"/>
<path opacity="0.2" d="M28.4488 72.0691C36.4739 74.8364 44.5379 73.0605 44.5379 73.0605C44.5379 73.0605 39.5908 66.7979 31.5658 64.0306C23.5407 61.2633 15.4767 63.0392 15.4767 63.0392C15.4767 63.0392 20.4238 69.3018 28.4488 72.0691Z" fill="black"/>
<path opacity="0.2" d="M27.088 122.624C32.7129 124.563 38.3731 123.298 38.3731 123.298C38.3731 123.298 34.9135 118.888 29.2887 116.948C23.6638 115.009 18.0035 116.274 18.0035 116.274C18.0035 116.274 21.4631 120.684 27.088 122.624Z" fill="black"/>
<path d="M78.8378 90.9978C95.8472 90.9978 109.636 77.9943 109.636 61.9538C109.636 45.9132 95.8472 32.9097 78.8378 32.9097C61.8283 32.9097 48.0394 45.9132 48.0394 61.9538C48.0394 77.9943 61.8283 90.9978 78.8378 90.9978Z" fill="#F9F9F9"/>
<path d="M66.8073 84.1906C66.8073 84.1906 70.657 101.435 70.657 103.251C70.657 105.066 88.9436 113.235 88.9436 113.235L105.305 110.512L111.08 94.1744C111.08 94.1744 101.455 80.5601 101.455 75.1143L66.8073 84.1906Z" fill="#EEEEEE"/>
<path d="M151.638 103.837L151.376 104.406C144.252 119.689 131.9 132.278 116.294 140.16C100.688 148.042 82.7299 150.761 65.2919 147.882C64.8174 147.803 64.3437 147.721 63.8708 147.636C58.9843 146.742 54.1993 145.412 49.5807 143.661C48.8304 143.377 48.0856 143.083 47.3463 142.778C46.8414 142.57 46.3366 142.357 45.8364 142.136C41.3027 140.155 36.9788 137.773 32.9229 135.021L29.2721 125.034L31.3242 123.558L35.5453 120.518L40.0493 117.276L41.2203 116.432L58.8924 103.709L60.1966 102.77L69.3821 96.1579L69.3845 96.1557C69.3845 96.1557 79.3179 111.419 93.7553 106.881C108.193 102.343 107.877 89.3295 107.877 89.3295L151.638 103.837Z" fill="#B87853"/>
<path d="M52.1295 38.554C52.1295 38.554 61.9079 18.5744 80.6498 23.185C99.3916 27.7957 109.985 34.7117 110.8 41.6278C111.615 48.5438 110.392 58.9178 110.392 58.9178C110.392 58.9178 108.355 44.7016 95.3173 47.7753C82.2795 50.8491 61.9079 48.5438 61.9079 48.5438L58.6484 76.2079C58.6484 76.2079 54.9816 71.213 50.9072 74.2868C46.8329 77.3606 39.0917 44.7016 52.1295 38.554Z" fill="#030303"/>
<path d="M49.5807 143.662C48.8304 143.377 48.0856 143.083 47.3462 142.778C46.8414 142.571 46.3365 142.357 45.8363 142.136C38.3382 138.857 31.4305 134.492 25.3641 129.198C27.5121 126.438 29.2721 125.034 29.2721 125.034H43.7094L45.8737 131.898L49.5807 143.662Z" fill="#B87853"/>
<path d="M138.991 102.343L151.376 104.406C148.062 111.526 143.585 118.113 138.11 123.928L138.991 102.343Z" fill="#B87853"/>
</g>
<defs>
<clipPath id="clip0_15_858">
<rect width="158" height="149" fill="white"/>
</clipPath>
</defs>
</svg>
