<svg width="51" height="30" viewBox="0 0 51 30" fill="none" xmlns="http://www.w3.org/2000/svg">
<path d="M48.45 0H12.75C12.0737 0 11.4251 0.197544 10.9469 0.549175C10.4687 0.900806 10.2 1.37772 10.2 1.875V7.5H22.95V3.75H38.25V22.5H48.45C49.1263 22.5 49.7749 22.3025 50.2531 21.9508C50.7313 21.5992 51 21.1223 51 20.625V1.875C51 1.37772 50.7313 0.900806 50.2531 0.549175C49.7749 0.197544 49.1263 0 48.45 0ZM18.4875 6.03516C18.4875 6.17502 18.4119 6.30915 18.2774 6.40804C18.1429 6.50694 17.9605 6.5625 17.7703 6.5625H15.3797C15.1895 6.5625 15.0071 6.50694 14.8726 6.40804C14.7381 6.30915 14.6625 6.17502 14.6625 6.03516V4.27734C14.6625 4.13748 14.7381 4.00335 14.8726 3.90446C15.0071 3.80556 15.1895 3.75 15.3797 3.75H17.7703C17.9605 3.75 18.1429 3.80556 18.2774 3.90446C18.4119 4.00335 18.4875 4.13748 18.4875 4.27734V6.03516ZM46.5375 18.2227C46.5375 18.3625 46.4619 18.4966 46.3274 18.5955C46.1929 18.6944 46.0105 18.75 45.8203 18.75H43.4297C43.2395 18.75 43.0571 18.6944 42.9226 18.5955C42.7881 18.4966 42.7125 18.3625 42.7125 18.2227V16.4648C42.7125 16.325 42.7881 16.1909 42.9226 16.092C43.0571 15.9931 43.2395 15.9375 43.4297 15.9375H45.8203C46.0105 15.9375 46.1929 15.9931 46.3274 16.092C46.4619 16.1909 46.5375 16.325 46.5375 16.4648V18.2227ZM46.5375 12.1289C46.5375 12.2688 46.4619 12.4029 46.3274 12.5018C46.1929 12.6007 46.0105 12.6562 45.8203 12.6562H43.4297C43.2395 12.6562 43.0571 12.6007 42.9226 12.5018C42.7881 12.4029 42.7125 12.2688 42.7125 12.1289V10.3711C42.7125 10.2312 42.7881 10.0971 42.9226 9.99821C43.0571 9.89931 43.2395 9.84375 43.4297 9.84375H45.8203C46.0105 9.84375 46.1929 9.89931 46.3274 9.99821C46.4619 10.0971 46.5375 10.2312 46.5375 10.3711V12.1289ZM46.5375 6.03516C46.5375 6.17502 46.4619 6.30915 46.3274 6.40804C46.1929 6.50694 46.0105 6.5625 45.8203 6.5625H43.4297C43.2395 6.5625 43.0571 6.50694 42.9226 6.40804C42.7881 6.30915 42.7125 6.17502 42.7125 6.03516V4.27734C42.7125 4.13748 42.7881 4.00335 42.9226 3.90446C43.0571 3.80556 43.2395 3.75 43.4297 3.75H45.8203C46.0105 3.75 46.1929 3.80556 46.3274 3.90446C46.4619 4.00335 46.5375 4.13748 46.5375 4.27734V6.03516ZM33.15 9.375H2.55C1.8737 9.375 1.2251 9.57254 0.746878 9.92418C0.26866 10.2758 0 10.7527 0 11.25L0 28.125C0 28.6223 0.26866 29.0992 0.746878 29.4508C1.2251 29.8025 1.8737 30 2.55 30H33.15C33.8263 30 34.4749 29.8025 34.9531 29.4508C35.4313 29.0992 35.7 28.6223 35.7 28.125V11.25C35.7 10.7527 35.4313 10.2758 34.9531 9.92418C34.4749 9.57254 33.8263 9.375 33.15 9.375ZM7.65 13.125C8.15434 13.125 8.64736 13.235 9.0667 13.441C9.48605 13.647 9.81289 13.9399 10.0059 14.2825C10.1989 14.6251 10.2494 15.0021 10.151 15.3658C10.0526 15.7295 9.80975 16.0636 9.45312 16.3258C9.0965 16.588 8.64213 16.7666 8.14748 16.839C7.65283 16.9113 7.14011 16.8742 6.67416 16.7323C6.20821 16.5904 5.80995 16.35 5.52975 16.0417C5.24956 15.7334 5.1 15.3708 5.1 15C5.1 14.5027 5.36866 14.0258 5.84688 13.6742C6.3251 13.3225 6.9737 13.125 7.65 13.125ZM30.6 26.25H5.1V24.375L10.2 20.625L12.75 22.5L22.95 15L30.6 20.625V26.25Z" fill="#B87853"/>
</svg>
